{
	"asset":{
		"generator":"Khronos glTF Blender I/O v4.2.69",
		"version":"2.0"
	},
	"scene":0,
	"scenes":[
		{
			"name":"Scene",
			"nodes":[
				0
			]
		}
	],
	"nodes":[
		{
			"mesh":0,
			"name":"Cylinder",
			"scale":[
				0.20000003278255463,
				0.2000000923871994,
				0.044206634163856506
			]
		}
	],
	"meshes":[
		{
			"name":"Cylinder",
			"primitives":[
				{
					"attributes":{
						"POSITION":0,
						"NORMAL":1,
						"TEXCOORD_0":2
					},
					"indices":3
				}
			]
		}
	],
	"accessors":[
		{
			"bufferView":0,
			"componentType":5126,
			"count":901,
			"max":[
				1.8228079080581665,
				1.8228079080581665,
				1.26786208152771
			],
			"min":[
				-1.8228079080581665,
				-1.8228079080581665,
				-1.26786208152771
			],
			"type":"VEC3"
		},
		{
			"bufferView":1,
			"componentType":5126,
			"count":901,
			"type":"VEC3"
		},
		{
			"bufferView":2,
			"componentType":5126,
			"count":901,
			"type":"VEC2"
		},
		{
			"bufferView":3,
			"componentType":5123,
			"count":3828,
			"type":"SCALAR"
		}
	],
	"bufferViews":[
		{
			"buffer":0,
			"byteLength":10812,
			"byteOffset":0,
			"target":34962
		},
		{
			"buffer":0,
			"byteLength":10812,
			"byteOffset":10812,
			"target":34962
		},
		{
			"buffer":0,
			"byteLength":7208,
			"byteOffset":21624,
			"target":34962
		},
		{
			"buffer":0,
			"byteLength":7656,
			"byteOffset":28832,
			"target":34963
		}
	],
	"buffers":[
		{
			"byteLength":36488,
			"uri":"item.bin"
		}
	]
}
